<svg width="150" height="32" viewBox="0 0 150 32" fill="#fff" xmlns="http://www.w3.org/2000/svg"><path fillRule="evenodd" clipRule="evenodd" d="M15.8959 3.6536L18.0055 0L23.9863 3.4536L21.8775 7.1064C21.5071 7.7472 22.0615 8.5264 22.7879 8.3864L26.8295 7.6064L28.1375 14.388L24.0959 15.1672C17.5583 16.428 12.5671 9.42 15.8959 3.6536Z" className="fill-zinc-200"></path><path fill-rule="evenodd" clip-rule="evenodd" d="M12.2416 28.3464L10.132 32L4.1504 28.5472L6.26 24.8936C6.6304 24.2528 6.076 23.4736 5.3488 23.6136L1.308 24.3928L0 17.612L4.0416 16.8328C10.5792 15.572 15.5696 22.58 12.2416 28.3464Z" className="fill-zinc-200"></path><path fill-rule="evenodd" clip-rule="evenodd" d="M12.424 3.6536L10.3152 0L4.33361 3.4536L6.44321 7.1064C6.81281 7.7472 6.25921 8.5264 5.53201 8.3864L1.49041 7.6064L0.184006 14.388L4.22481 15.1672C10.7632 16.428 15.7544 9.42 12.4248 3.6536H12.424Z" className="fill-zinc-200"></path><path fill-rule="evenodd" clip-rule="evenodd" d="M15.72 28.3464L17.828 32L23.8096 28.5472L21.7 24.8936C21.3304 24.2528 21.884 23.4736 22.6112 23.6136L26.652 24.3928L27.96 17.612L23.9184 16.8328C17.3808 15.572 12.3904 22.58 15.7184 28.3464H15.72Z" className="fill-zinc-200"></path><path d="M130.491 24.1224V17.3224C130.491 16.38 130.708 15.5344 131.142 14.7864C131.59 14.0232 132.226 13.4248 133.05 12.9904C133.873 12.5568 134.853 12.34 135.99 12.34C136.52 12.3348 137.049 12.4026 137.561 12.5416C138.04 12.6616 138.474 12.8336 138.862 13.0576C139.266 13.2672 139.61 13.5216 139.895 13.8208H139.94C140.245 13.5173 140.593 13.2601 140.972 13.0576C141.389 12.8281 141.834 12.6546 142.297 12.5416C142.817 12.4036 143.353 12.3358 143.89 12.34C145.027 12.34 146.007 12.556 146.83 12.9904C147.653 13.4248 148.289 14.0224 148.738 14.7864C149.187 15.5344 149.411 16.3792 149.411 17.3224V24.1224H145.91V17.4344C145.91 17.0608 145.813 16.724 145.618 16.4248C145.44 16.1118 145.185 15.8492 144.878 15.6616C144.553 15.4642 144.18 15.363 143.8 15.3696C143.396 15.3696 143.03 15.4672 142.701 15.6616C142.393 15.849 142.138 16.1116 141.96 16.4248C141.779 16.7299 141.685 17.0794 141.69 17.4344V24.1224H138.212V17.4344C138.212 17.0608 138.114 16.724 137.92 16.4248C137.738 16.1073 137.474 15.8439 137.157 15.6616C136.832 15.4642 136.459 15.363 136.079 15.3696C135.675 15.3696 135.309 15.4672 134.98 15.6616C134.672 15.849 134.417 16.1116 134.239 16.4248C134.058 16.7301 133.965 17.0794 133.97 17.4344V24.1224H130.491ZM122.882 24.392C121.701 24.392 120.675 24.168 119.808 23.7184C118.955 23.2544 118.297 22.6336 117.833 21.856C117.369 21.0632 117.137 20.1872 117.137 19.2296V12.6088H120.616V19.14C120.616 19.544 120.713 19.9184 120.907 20.2624C121.102 20.5912 121.364 20.8608 121.693 21.0704C122.037 21.2648 122.426 21.3624 122.86 21.3624C123.279 21.3624 123.653 21.2648 123.982 21.0704C124.326 20.8608 124.596 20.5912 124.79 20.2624C124.985 19.9184 125.082 19.544 125.082 19.14V12.6088H128.561V19.2296C128.561 20.1872 128.336 21.0632 127.887 21.856C127.438 22.6336 126.788 23.2552 125.935 23.7184C125.097 24.1672 124.079 24.392 122.882 24.392ZM105.931 24.1224V21.3624H111.475C111.625 21.3624 111.759 21.332 111.879 21.272C111.998 21.1976 112.096 21.1 112.17 20.9808C112.244 20.8628 112.283 20.7268 112.283 20.588C112.283 20.4491 112.244 20.3131 112.17 20.1952C112.101 20.0798 112 19.9864 111.879 19.9256C111.758 19.8504 111.618 19.8116 111.475 19.8136H109.455C108.706 19.8136 108.026 19.6936 107.413 19.4544C106.831 19.2132 106.331 18.8076 105.976 18.2872C105.632 17.7488 105.46 17.0528 105.46 16.2C105.46 15.5416 105.617 14.9432 105.931 14.4048C106.258 13.868 106.713 13.4206 107.255 13.1024C107.821 12.774 108.464 12.6036 109.118 12.6088H114.662V15.392H109.657C109.458 15.388 109.265 15.4604 109.118 15.5944C109.053 15.6585 109.001 15.7354 108.966 15.8202C108.931 15.9051 108.914 15.9962 108.916 16.088C108.916 16.2976 108.984 16.4768 109.118 16.6264C109.265 16.7603 109.458 16.8327 109.657 16.8288H111.632C112.47 16.8288 113.188 16.956 113.786 17.2096C114.4 17.4496 114.871 17.8384 115.201 18.3776C115.545 18.916 115.717 19.6112 115.717 20.464C115.717 21.1376 115.545 21.7512 115.201 22.304C114.874 22.855 114.41 23.3115 113.854 23.6288C113.3 23.9584 112.672 24.1224 111.969 24.1224H105.931ZM98.352 12.34C99.3248 12.34 100.185 12.4968 100.933 12.8112C101.668 13.0913 102.328 13.5366 102.863 14.1128C103.409 14.6773 103.829 15.3502 104.098 16.088C104.382 16.836 104.524 17.6664 104.524 18.5792C104.524 19.716 104.285 20.7264 103.806 21.6088C103.363 22.4544 102.695 23.1613 101.876 23.6512C101.053 24.1448 100.095 24.392 99.0032 24.392C98.5392 24.392 98.0976 24.332 97.6784 24.2128C97.2814 24.096 96.9035 23.9219 96.5568 23.696C96.2299 23.4742 95.9481 23.1924 95.7264 22.8656H95.6584V28.9936H92.18V18.5784C92.18 17.3064 92.4344 16.2064 92.9432 15.2792C93.4364 14.3665 94.1851 13.6175 95.0976 13.124C96.0256 12.6008 97.1104 12.3392 98.352 12.3392V12.34ZM98.352 15.3472C97.8136 15.3472 97.3424 15.4816 96.9384 15.7512C96.5488 16.0056 96.2496 16.3648 96.04 16.8288C95.8312 17.2768 95.7264 17.7864 95.7264 18.3544C95.7264 18.9232 95.8312 19.432 96.04 19.8808C96.2496 20.3296 96.5488 20.6888 96.9384 20.9584C97.3424 21.2128 97.8136 21.34 98.352 21.34C98.8904 21.34 99.3544 21.212 99.7432 20.9584C100.134 20.6868 100.445 20.3145 100.642 19.8808C100.866 19.432 100.978 18.9232 100.978 18.3544C100.978 17.7864 100.866 17.2776 100.642 16.8288C100.432 16.3648 100.133 16.0048 99.7432 15.7512C99.3544 15.4816 98.8904 15.3472 98.352 15.3472ZM86.8936 24.1224V12.6088H90.3952V24.1224H86.8936ZM88.644 11.3072C88.0904 11.3072 87.612 11.1056 87.208 10.7016C86.804 10.2976 86.6016 9.81835 86.6016 9.26475C86.6016 8.71115 86.804 8.23275 87.208 7.82875C87.612 7.40955 88.0904 7.19995 88.644 7.19995C89.1976 7.19995 89.6768 7.40955 90.0808 7.82875C90.4848 8.23275 90.6864 8.71115 90.6864 9.26475C90.6864 9.81835 90.4848 10.2968 90.0808 10.7016C89.6768 11.1056 89.1976 11.3072 88.644 11.3072ZM79.284 24.392C78.1024 24.392 77.04 24.1304 76.0968 23.6064C75.1715 23.0992 74.3973 22.3558 73.8528 21.452C73.3144 20.5392 73.0448 19.5144 73.0448 18.3768C73.0448 17.2248 73.3144 16.2 73.8528 15.3024C74.3973 14.3985 75.1715 13.6551 76.0968 13.148C77.04 12.6088 78.1024 12.34 79.284 12.34C80.4664 12.34 81.5208 12.6088 82.4488 13.148C83.3708 13.6516 84.1387 14.3963 84.6704 15.3024C85.224 16.2 85.5008 17.2248 85.5008 18.3768C85.5008 19.5144 85.224 20.5392 84.6704 21.452C84.1387 22.358 83.3708 23.1027 82.4488 23.6064C81.5064 24.1304 80.4512 24.392 79.284 24.392ZM79.284 21.3624C79.8376 21.3624 80.3168 21.2272 80.7208 20.9584C81.1249 20.689 81.4501 20.3171 81.6632 19.8808C81.888 19.432 82 18.9232 82 18.3544C82 17.8008 81.888 17.3 81.6632 16.8504C81.4501 16.4142 81.1248 16.0426 80.7208 15.7736C80.3168 15.504 79.8376 15.3696 79.284 15.3696C78.7304 15.3696 78.244 15.504 77.8256 15.7736C77.4213 16.0429 77.0958 16.4148 76.8824 16.8512C76.6538 17.3191 76.5387 17.8344 76.5464 18.3552C76.5464 18.9232 76.6584 19.432 76.8824 19.8808C77.0959 20.3171 77.4214 20.689 77.8256 20.9584C78.244 21.2272 78.7304 21.3624 79.284 21.3624ZM61.7392 28.6792V25.6936H67.484C67.7088 25.6936 67.896 25.6192 68.0456 25.4696C68.1185 25.4051 68.1764 25.3254 68.2151 25.2361C68.2538 25.1468 68.2724 25.0501 68.2696 24.9528V22.4168H68.2024C67.9182 22.7473 67.5941 23.0412 67.2376 23.292C66.908 23.532 66.5336 23.7112 66.1152 23.8312C65.6699 23.9563 65.2089 24.0166 64.7464 24.0104C63.7288 24.0104 62.816 23.7704 62.008 23.292C61.2152 22.7984 60.5864 22.1176 60.1224 21.2496C59.6744 20.3824 59.4496 19.3944 59.4496 18.2872C59.4496 17.1952 59.6816 16.2 60.1456 15.3024C60.624 14.4048 61.32 13.6864 62.2328 13.148C63.1448 12.6088 64.26 12.34 65.5768 12.34C66.8336 12.34 67.9184 12.6016 68.8312 13.1256C69.7478 13.6231 70.4972 14.38 70.9856 15.3016C71.4944 16.2296 71.7488 17.3224 71.7488 18.5792V25.312C71.7488 26.344 71.4424 27.16 70.8288 27.7584C70.2304 28.372 69.4 28.6784 68.3376 28.6784L61.7392 28.6792ZM65.5992 21.0928C66.1376 21.0928 66.6016 20.9728 66.9912 20.7336C67.3756 20.484 67.6855 20.1351 67.888 19.724C68.1008 19.2911 68.2085 18.8142 68.2024 18.332C68.2024 17.7936 68.0984 17.3 67.8888 16.8512C67.6792 16.4024 67.38 16.0504 66.9904 15.796C66.6016 15.5264 66.1376 15.392 65.5984 15.392C65.0752 15.392 64.6112 15.5192 64.2072 15.7736C63.8184 16.028 63.5192 16.372 63.3096 16.8056C63.1008 17.24 62.996 17.7256 62.996 18.2648C62.996 18.7888 63.1 19.2672 63.3096 19.7016C63.5192 20.12 63.8184 20.4568 64.208 20.7112C64.6112 20.9656 65.0752 21.0928 65.5992 21.0928ZM52.3784 24.392C51.1968 24.392 50.1344 24.1304 49.192 23.6064C48.2664 23.0993 47.4918 22.3559 46.9472 21.452C46.4088 20.5392 46.1392 19.5144 46.1392 18.3768C46.1392 17.2248 46.4088 16.2 46.9472 15.3024C47.4918 14.3984 48.2664 13.655 49.192 13.148C50.1344 12.6088 51.1968 12.34 52.3784 12.34C53.5608 12.34 54.6152 12.6088 55.5432 13.148C56.4651 13.6517 57.233 14.3963 57.7648 15.3024C58.3184 16.2 58.5952 17.2248 58.5952 18.3768C58.5952 19.5144 58.3184 20.5392 57.7648 21.452C57.233 22.358 56.4651 23.1026 55.5432 23.6064C54.6008 24.1304 53.5456 24.392 52.3784 24.392ZM52.3784 21.3624C52.932 21.3624 53.4104 21.2272 53.8152 20.9584C54.2191 20.6889 54.5443 20.317 54.7576 19.8808C54.9816 19.432 55.0936 18.9232 55.0936 18.3544C55.0936 17.8008 54.9816 17.3 54.7576 16.8504C54.5443 16.4144 54.2191 16.0428 53.8152 15.7736C53.4112 15.504 52.932 15.3696 52.3784 15.3696C51.8248 15.3696 51.3384 15.504 50.92 15.7736C50.5157 16.0429 50.1902 16.4148 49.9768 16.8512C49.7482 17.3191 49.6331 17.8344 49.6408 18.3552C49.6408 18.9232 49.7528 19.432 49.9768 19.8808C50.1903 20.3171 50.5158 20.689 50.92 20.9584C51.3384 21.2272 51.8248 21.3624 52.3784 21.3624ZM41.2376 24.1224C40.2648 24.1224 39.412 23.9064 38.6792 23.472C37.9665 23.0587 37.3775 22.462 36.9736 21.744C36.5696 21.0256 36.3672 20.232 36.3672 19.3648V8.41195H40.1376V19.6336C40.1376 19.9936 40.2656 20.3072 40.5192 20.5768C40.7736 20.8456 41.0872 20.9808 41.4616 20.9808H45.6136V24.1224H41.2376Z" className="fill-zinc-200"></path></svg>